<svg fill="#C14D33" id="Capa_1" enable-background="new 0 0 512 512" height="512" viewBox="0 0 512 512" width="512" xmlns="http://www.w3.org/2000/svg"><g><path d="m180.888 511.99h323.428c4.143 0 7.5-3.358 7.5-7.5s-3.357-7.5-7.5-7.5h-293.265l26.415-26.414c2.929-2.929 2.929-7.678 0-10.607-2.93-2.929-7.678-2.929-10.607 0l-30.612 30.612c-4.043 4.043-9.39 6.299-15.091 6.409h-.862c-5.702-.11-11.048-2.365-15.091-6.409l-143.773-143.772c-4.147-4.146-6.43-9.659-6.43-15.522 0-5.864 2.283-11.376 6.431-15.523l73.636-73.636 174.816 174.816-19.912 19.912c-2.929 2.929-2.929 7.678 0 10.606 1.465 1.464 3.385 2.197 5.304 2.197s3.839-.732 5.304-2.197l240.598-240.599c6.98-6.979 10.824-16.259 10.824-26.129 0-9.871-3.844-19.15-10.823-26.129l-143.772-143.771c-6.98-6.979-16.26-10.823-26.13-10.823s-19.15 3.844-26.13 10.823l-19.403 19.404c-2.929 2.929-2.929 7.678 0 10.606 2.93 2.929 7.678 2.928 10.607 0l19.403-19.404c8.558-8.561 22.487-8.56 31.045 0l143.772 143.772c4.146 4.146 6.43 9.659 6.43 15.522s-2.283 11.376-6.431 15.522l-210.08 210.081-174.816-174.815 167.565-167.566c2.929-2.929 2.929-7.678 0-10.606-2.93-2.929-7.678-2.929-10.607 0l-251.807 251.808c-6.98 6.979-10.824 16.259-10.824 26.129s3.844 19.15 10.823 26.129l143.771 143.771c6.816 6.816 15.655 10.436 24.603 10.802h1.691z"/><path d="m354.644 224.82c-2.558 3.258-1.989 7.973 1.269 10.53s7.973 1.989 10.53-1.269c31.97-40.729 39.157-84.314 17.479-105.992-25.357-25.357-79.502-10.946-123.264 32.814-43.759 43.759-58.173 97.903-32.814 123.262 8.226 8.225 19.749 12.445 33.426 12.445 6.077 0 12.581-.833 19.409-2.52 20.575-5.081 42.762-17.587 62.474-35.215 3.087-2.761 3.352-7.502.591-10.59-2.761-3.087-7.501-3.353-10.591-.591-35.689 31.917-77.287 43.278-94.701 25.864-18.765-18.765-3.737-65.498 32.814-102.049 36.551-36.552 83.283-51.581 102.049-32.814 7.335 7.334 9.761 19.672 6.83 34.74-3.152 16.2-12.207 34.448-25.501 51.385z"/></g></svg>