<?xml version="1.0" encoding="iso-8859-1"?>
<!-- Generator: Adobe Illustrator 18.0.0, SVG Export Plug-In . SVG Version: 6.00 Build 0)  -->
<!DOCTYPE svg PUBLIC "-//W3C//DTD SVG 1.1//EN" "http://www.w3.org/Graphics/SVG/1.1/DTD/svg11.dtd">
<svg fill="#666" version="1.1" id="Capa_1" xmlns="http://www.w3.org/2000/svg" xmlns:xlink="http://www.w3.org/1999/xlink" x="0px" y="0px"
	 viewBox="0 0 490 490" style="enable-background:new 0 0 490 490;" xml:space="preserve">
<g>
	<polygon points="401.326,0 401.326,15.283 463.475,15.283 315.79,170.02 326.849,180.571 473.975,26.42 473.975,87.931 
		489.258,87.931 489.258,0 	"/>
	<polygon points="179.791,169.057 26.017,15.283 88.342,15.283 88.342,0 0.407,0 0.407,87.931 15.689,87.931 15.689,26.566 
		168.986,179.862 	"/>
	<polygon points="181.896,312.153 170.852,301.586 15.689,463.812 15.689,402.069 0.407,402.069 0.407,490 88.342,490 
		88.342,474.717 26.409,474.717 	"/>
	<polygon points="474.311,402.069 474.311,461.739 326.346,302.247 315.145,312.641 465.507,474.717 401.658,474.717 401.658,490 
		489.593,490 489.593,402.069 	"/>
</g>
<g>
</g>
<g>
</g>
<g>
</g>
<g>
</g>
<g>
</g>
<g>
</g>
<g>
</g>
<g>
</g>
<g>
</g>
<g>
</g>
<g>
</g>
<g>
</g>
<g>
</g>
<g>
</g>
<g>
</g>
</svg>
